<?xml version="1.0" standalone="no"?>
<!DOCTYPE svg PUBLIC "-//W3C//DTD SVG 20010904//EN"
 "http://www.w3.org/TR/2001/REC-SVG-20010904/DTD/svg10.dtd">
<svg version="1.0" xmlns="http://www.w3.org/2000/svg"
 width="1024.000000pt" height="1024.000000pt" viewBox="0 0 1024.000000 1024.000000"
 preserveAspectRatio="xMidYMid meet">
<metadata>
Created by potrace 1.11, written by Peter Selinger 2001-2013
</metadata>
<g transform="translate(0.000000,1024.000000) scale(0.100000,-0.100000)"
fill="#000000" stroke="none">
<path d="M4455 10228 c-22 -5 -96 -23 -165 -40 -306 -74 -709 -236 -928 -375
-29 -18 -55 -33 -57 -33 -3 0 -58 -36 -122 -80 -607 -411 -1071 -1002 -1356
-1725 -117 -299 -229 -726 -262 -1004 -4 -30 -8 -61 -10 -70 -3 -15 -14 -118
-21 -186 -27 -286 -26 -957 2 -1180 2 -16 6 -61 9 -100 3 -38 8 -81 10 -95 2
-14 7 -50 10 -80 3 -30 10 -80 15 -110 5 -30 19 -111 31 -180 156 -929 507
-1826 1079 -2765 136 -223 405 -608 597 -856 100 -128 333 -414 375 -459 13
-14 68 -77 124 -140 56 -63 114 -129 130 -146 39 -41 195 -212 214 -234 27
-30 174 -192 200 -220 14 -14 49 -54 78 -88 l54 -62 79 0 78 0 -2 55 c-1 30 2
55 6 55 5 0 5 5 1 11 -9 16 -10 149 -1 149 5 0 5 5 1 11 -9 16 -10 149 -1 149
5 0 5 5 1 11 -9 15 -11 149 -2 149 4 0 3 11 -2 24 -6 17 -5 26 3 30 8 3 8 5
-2 5 -11 1 -11 4 -1 16 9 11 9 15 1 15 -7 0 -9 5 -5 12 12 19 12 48 1 48 -5 0
-4 7 3 15 10 12 10 15 0 15 -9 0 -9 4 -2 13 7 8 7 18 2 27 -6 9 -5 18 3 23 9
7 9 10 0 14 -9 3 -10 10 -3 23 7 13 6 20 -3 23 -9 4 -9 6 0 6 9 1 10 8 3 26
-5 14 -6 25 -2 25 5 0 8 16 8 35 -1 19 -5 35 -9 35 -5 0 -5 5 -1 12 8 13 12
78 4 78 -4 0 -4 167 0 180 6 18 6 52 0 55 -6 4 -6 70 0 70 1 0 3 10 4 22 2 13
-1 23 -6 23 -5 0 -6 5 -2 12 10 16 11 68 1 68 -5 0 -5 5 -1 12 11 17 11 58 1
58 -5 0 -4 7 3 15 9 11 9 15 1 15 -7 0 -9 5 -5 12 12 19 12 48 1 48 -5 0 -4 7
3 15 10 12 10 15 0 15 -10 0 -10 3 0 15 9 11 9 15 1 15 -7 0 -9 5 -5 12 11 17
12 48 4 53 -9 5 -6 62 3 71 3 3 3 12 1 19 -9 22 -9 115 -1 115 5 0 5 5 1 11
-9 16 -10 149 -1 149 5 0 5 5 1 11 -9 16 -10 149 -1 149 5 0 5 5 1 11 -9 15
-11 149 -2 149 4 0 3 11 -2 24 -6 17 -5 26 3 30 8 3 8 5 -2 5 -11 1 -11 4 -1
16 9 11 9 15 1 15 -7 0 -9 5 -5 12 12 19 12 48 1 48 -5 0 -4 7 3 15 10 12 10
15 0 15 -10 0 -10 3 0 15 9 11 9 15 1 15 -7 0 -9 5 -5 12 11 17 12 48 4 53 -6
4 -6 70 0 70 1 0 3 10 4 22 2 13 -1 23 -6 23 -5 0 -6 5 -2 12 11 17 10 68 -1
68 -5 0 -4 5 2 11 6 6 9 21 5 33 -6 19 -7 53 -2 66 7 18 5 50 -3 50 -5 0 -4 7
3 15 10 12 10 15 0 15 -9 0 -10 3 -1 13 6 8 8 16 6 19 -3 3 7 4 22 2 136 -16
262 -23 443 -24 194 -1 430 12 450 25 6 3 10 1 10 -6 0 -8 5 -7 17 2 15 12 16
12 8 -1 -8 -13 -6 -13 8 -1 9 7 30 11 46 9 17 -2 28 -1 25 4 -5 7 29 11 94 12
12 0 22 5 22 10 0 5 3 7 6 3 3 -3 17 -2 30 3 17 7 24 6 24 -3 0 -9 2 -9 8 0 4
7 24 14 43 16 20 2 41 7 47 11 7 4 12 1 12 -6 0 -9 3 -10 8 -2 7 12 35 22 79
30 16 3 49 11 76 19 35 10 47 11 47 2 0 -7 6 -5 14 5 7 9 23 19 37 22 13 2 47
12 74 21 28 10 55 18 62 19 7 1 16 5 19 9 4 4 18 7 31 7 12 0 23 5 23 11 0 7
10 9 25 7 13 -3 22 -1 19 3 -5 8 10 13 29 10 4 0 7 3 7 8 0 5 7 12 16 15 9 4
13 2 8 -5 -3 -6 5 -4 18 5 14 9 28 13 31 9 4 -3 7 -2 7 4 0 5 12 15 26 22 23
10 26 10 20 -4 -3 -9 -2 -13 4 -10 6 3 10 13 10 21 0 8 7 15 15 15 24 2 28 4
64 26 18 12 41 19 49 15 9 -3 13 -1 9 5 -4 5 5 15 20 22 22 10 25 10 15 -2 -9
-11 -8 -14 3 -14 8 0 12 3 10 7 -12 19 60 62 94 55 12 -2 19 0 16 6 -4 5 -11
6 -17 3 -7 -4 -8 -2 -4 5 4 6 11 9 15 6 5 -2 17 5 27 16 10 11 24 17 31 14 8
-2 12 -1 9 3 -3 5 9 17 26 27 17 10 28 13 24 6 -4 -6 -2 -11 3 -11 6 0 11 6
11 13 0 17 98 80 115 73 8 -3 12 0 9 7 -2 7 14 24 37 37 22 14 50 34 61 45 12
11 18 14 14 8 -5 -9 -2 -11 9 -7 9 4 13 9 11 12 -10 10 15 31 30 25 9 -3 14 0
12 7 -2 7 3 15 11 18 9 3 11 0 6 -9 -5 -8 -4 -10 0 -6 5 4 10 15 11 25 2 9 8
18 14 20 6 2 17 10 25 19 8 8 15 12 15 8 0 -4 15 10 34 29 18 20 36 33 40 29
3 -3 6 -1 6 5 0 13 28 42 41 42 6 0 8 -4 4 -9 -3 -5 0 -13 7 -17 7 -4 10 -4 6
1 -4 4 -2 15 5 23 9 13 9 14 0 8 -19 -11 -15 2 7 24 22 22 35 27 24 8 -5 -7
-3 -8 7 -2 8 5 18 9 23 9 5 0 11 7 13 15 3 9 1 11 -4 5 -9 -11 -33 -18 -33
-10 0 3 10 16 21 28 12 12 19 15 15 7 -4 -8 -1 -7 8 4 8 10 26 24 38 30 13 7
22 19 20 29 -3 20 14 23 21 5 2 -7 2 -3 0 9 -2 17 1 21 12 17 8 -3 12 -10 9
-15 -3 -5 0 -9 5 -9 14 0 14 17 1 25 -15 9 -12 25 6 25 9 0 12 -5 8 -12 -4 -7
-3 -8 5 -4 9 6 9 11 1 21 -14 17 0 26 40 27 17 1 30 5 30 9 0 4 -11 6 -25 3
-14 -2 -25 0 -25 6 0 6 5 8 10 5 6 -3 10 -1 10 5 0 6 5 8 12 4 7 -5 8 -3 3 6
-4 7 -3 15 2 19 5 3 30 32 56 64 26 33 47 55 47 50 0 -4 6 3 13 17 7 14 21 24
30 24 15 -2 16 1 5 14 -11 13 -10 15 5 9 10 -4 20 -7 23 -7 2 0 1 -8 -2 -17
-5 -15 -4 -16 5 -3 8 11 6 18 -7 28 -13 10 -14 14 -4 21 8 5 13 12 11 16 -2 7
17 38 38 60 7 7 10 15 7 17 -2 3 6 4 19 3 17 -2 23 2 24 19 2 21 2 21 -13 2
-8 -11 -14 -17 -14 -13 0 9 36 61 62 91 10 10 14 24 11 30 -4 6 4 2 17 -9 l23
-20 -19 30 c-10 16 -14 26 -8 22 11 -6 26 14 28 37 1 14 23 19 31 7 3 -6 11
-11 18 -11 6 0 1 7 -12 16 -18 13 -20 18 -10 25 8 5 23 6 34 4 17 -4 16 -3 -2
6 -13 7 -23 16 -23 21 0 5 5 6 10 3 6 -3 10 3 10 14 0 12 5 21 11 21 5 0 8 4
5 8 -3 5 3 18 14 29 10 12 16 25 12 29 -4 5 2 2 12 -6 18 -14 19 -14 8 5 -8
17 -6 28 10 54 18 29 23 31 33 18 10 -14 13 -13 25 6 12 19 11 21 -2 9 -13
-10 -18 -9 -29 5 -12 15 -12 16 2 11 19 -7 47 8 36 19 -5 4 -12 1 -16 -6 -6
-9 -11 -10 -15 -2 -4 6 -2 11 3 11 6 0 10 3 10 8 -3 19 3 33 23 52 12 11 17
20 10 20 -6 0 0 16 13 36 14 20 22 40 19 45 -3 5 0 9 6 9 6 0 9 4 5 9 -3 5 -1
12 5 16 6 4 8 11 4 16 -3 6 6 8 23 4 27 -5 28 -5 3 5 -20 9 -22 13 -10 20 8 5
11 10 6 10 -5 0 -3 6 3 13 6 8 7 18 3 22 -4 5 -1 5 7 0 10 -6 12 -3 7 13 -4
12 -1 26 9 35 8 9 14 20 13 24 -3 10 19 73 26 73 3 0 3 -6 0 -13 -3 -8 1 -19
9 -25 11 -9 14 -8 14 3 0 8 -5 11 -10 8 -6 -4 -8 0 -4 9 3 9 0 21 -6 28 -9 10
-7 11 13 5 23 -6 24 -6 7 7 -18 13 -18 16 2 67 11 30 17 59 14 64 -3 6 -1 7 5
3 7 -4 12 -2 12 4 0 6 5 8 12 4 7 -4 8 -3 4 5 -4 6 -12 9 -17 6 -5 -4 -9 -1
-9 4 0 6 7 11 15 11 8 0 15 5 15 11 0 5 -4 8 -9 4 -11 -6 -6 34 5 44 4 3 4 -2
1 -11 -4 -10 -2 -18 4 -18 7 0 8 14 4 40 -5 27 -3 40 5 40 6 0 8 -6 4 -12 -4
-7 -4 -10 1 -6 4 4 15 2 23 -5 13 -10 14 -9 6 3 -5 8 -9 25 -9 38 -1 16 3 21
16 17 10 -3 20 -2 23 3 3 5 -11 8 -31 6 -20 -1 -32 0 -27 4 6 4 11 14 12 22 1
15 7 51 18 100 3 14 7 39 9 55 2 17 4 31 5 33 2 2 5 19 9 53 1 8 6 8 16 -1 13
-11 14 -10 8 6 -6 17 -5 18 13 4 17 -14 18 -14 6 2 -8 9 -19 15 -26 12 -7 -3
-13 2 -13 11 0 9 6 14 13 11 9 -3 11 1 7 12 -6 15 -5 16 13 2 10 -8 16 -11 12
-6 -4 5 -3 17 3 27 7 15 7 19 -3 17 -7 -2 -13 5 -13 14 0 24 -11 31 -12 8 -1
-11 2 -22 8 -25 5 -4 9 -11 9 -17 0 -6 -3 -8 -7 -5 -3 4 -13 1 -21 -6 -13 -10
-14 -9 -7 2 4 8 9 28 10 45 2 17 3 37 4 44 0 6 8 12 17 12 13 0 14 -3 5 -14
-9 -10 -8 -15 2 -19 9 -3 13 2 12 16 -1 12 3 28 9 36 8 11 8 13 -1 8 -6 -4
-14 -3 -18 3 -3 5 -1 10 6 10 7 0 10 3 6 6 -3 3 -11 3 -17 -1 -8 -5 -8 -11 1
-21 9 -11 8 -14 -5 -14 -12 0 -16 7 -14 22 4 26 39 66 52 60 5 -3 6 0 2 6 -11
18 -23 14 -29 -9 -3 -12 -10 -18 -17 -14 -7 5 -8 11 -1 19 7 9 7 17 -2 26 -10
10 -9 12 5 7 9 -3 21 0 27 7 11 14 5 26 -13 26 -6 0 -5 -4 3 -9 9 -6 10 -11 2
-15 -6 -4 -11 -4 -12 1 -6 51 -5 93 3 93 5 0 7 -4 4 -8 -2 -4 5 -14 17 -21 12
-8 19 -10 15 -6 -4 5 -2 15 5 24 10 14 10 14 -4 4 -13 -11 -18 -9 -28 10 -13
24 -21 117 -10 117 4 0 10 -6 12 -12 3 -8 6 -6 6 5 1 10 -6 17 -16 18 -12 0
-13 2 -5 6 10 4 10 8 1 19 -19 23 -2 16 22 -8 12 -13 19 -17 15 -10 -4 7 -2
21 6 30 11 15 11 16 -3 4 -17 -13 -23 -9 -44 27 -5 9 -4 12 3 7 6 -3 13 -2 17
4 3 5 -2 10 -12 11 -11 0 -13 3 -5 6 6 2 9 10 5 16 -11 18 -10 96 2 90 5 -2 1
3 -9 11 -17 14 -18 16 -3 16 9 0 18 6 18 13 6 47 3 74 -7 74 -7 0 -10 -6 -7
-14 3 -7 1 -13 -4 -13 -6 0 -9 12 -9 28 1 15 -2 35 -7 46 -7 14 -6 17 5 10 10
-6 9 -3 -2 10 -13 16 -12 20 3 31 16 12 16 13 -1 17 -10 3 -19 12 -19 21 0 9
4 14 8 12 4 -3 9 2 12 10 4 9 1 12 -7 9 -18 -7 -30 12 -15 22 8 5 9 3 4 -7 -5
-8 -4 -11 1 -6 11 11 14 68 3 61 -4 -2 -5 -12 -2 -21 4 -11 3 -14 -6 -9 -7 5
-10 15 -7 23 3 8 3 20 -1 26 -4 7 -8 17 -9 22 -11 63 -12 79 -7 91 3 8 9 11
14 8 5 -3 6 2 3 11 -6 14 -8 14 -20 -2 -13 -17 -13 -17 -14 3 0 12 10 26 23
32 20 11 19 11 -8 6 -29 -6 -29 -6 -10 11 17 14 17 16 3 11 -20 -6 -24 4 -7
21 8 8 7 13 -2 18 -8 5 -10 4 -5 -3 4 -7 2 -12 -3 -12 -6 0 -11 6 -12 13 -1
13 -4 30 -15 65 -5 19 -3 21 12 15 14 -5 13 -1 -6 16 -14 12 -19 19 -11 16 8
-5 7 2 -5 20 -23 35 -30 71 -11 59 7 -5 5 -2 -5 8 -19 17 -25 33 -9 23 11 -6
6 34 -5 44 -4 3 -4 -2 -1 -11 4 -11 2 -15 -7 -12 -18 7 -16 34 3 35 10 0 7 4
-8 10 -15 6 -21 15 -17 24 3 8 0 15 -6 15 -6 0 -9 3 -5 6 3 4 -1 20 -9 36 -9
17 -12 28 -6 25 5 -4 9 0 9 8 0 8 -5 13 -10 12 -5 -1 -13 8 -18 21 -5 14 -5
21 0 17 5 -3 13 0 17 6 4 7 3 9 -2 6 -23 -14 -46 19 -45 66 0 9 -4 15 -10 12
-5 -4 -9 -2 -9 4 0 5 6 12 13 14 7 3 4 6 -6 6 -10 1 -15 6 -12 11 3 6 2 10 -3
10 -6 0 -15 14 -21 30 -8 24 -7 29 2 24 7 -3 2 3 -11 13 -20 16 -21 21 -9 31
7 7 18 8 22 4 5 -4 5 -1 1 6 -6 10 -11 10 -21 2 -9 -8 -15 -8 -20 0 -3 5 -3
10 1 10 3 0 -6 16 -20 35 -15 19 -24 35 -20 35 3 0 -1 12 -11 26 -11 18 -13
24 -4 19 8 -4 4 2 -9 14 -12 12 -20 26 -17 32 4 5 1 9 -5 9 -7 0 -9 7 -6 16 3
8 2 13 -3 10 -11 -7 -23 22 -15 35 3 5 0 8 -8 7 -7 -2 -12 5 -12 14 1 10 -3
15 -9 11 -6 -4 -8 0 -4 11 4 10 3 15 -3 11 -6 -3 -13 2 -17 12 -3 10 -15 29
-25 42 -11 15 -16 32 -13 45 4 14 3 17 -3 8 -7 -10 -12 -9 -23 4 -12 16 -12
17 1 10 8 -4 6 0 -4 8 -11 9 -16 16 -11 16 4 0 -2 8 -13 19 -12 10 -22 24 -22
30 0 7 -7 19 -15 28 -8 8 -12 19 -9 25 4 7 2 8 -4 4 -13 -8 -35 28 -24 39 4 5
2 5 -4 2 -15 -8 -47 40 -38 55 4 6 3 8 -3 5 -13 -8 -45 26 -40 44 2 8 2 10 -1
6 -6 -11 -42 23 -42 40 0 7 -4 13 -9 13 -13 0 -81 92 -75 101 3 5 -2 6 -10 3
-14 -6 -21 5 -17 28 0 5 -3 7 -7 5 -10 -3 -68 55 -65 65 2 4 -1 8 -6 8 -11 0
-131 121 -131 132 0 4 -6 8 -13 8 -7 0 -19 8 -28 18 -8 9 -40 39 -71 66 -32
27 -54 54 -51 59 3 6 1 7 -4 4 -14 -9 -65 32 -57 45 4 6 2 8 -3 5 -9 -6 -55
22 -73 43 -3 3 -21 17 -40 30 -19 13 -43 33 -52 44 -10 10 -18 16 -18 13 0 -5
-152 91 -177 113 -7 5 -14 10 -16 10 -2 0 -44 23 -92 51 -273 157 -593 282
-940 368 l-120 30 -680 -1 c-405 0 -696 -4 -720 -10z m925 -1912 c65 -8 175
-30 246 -50 91 -24 312 -125 355 -162 8 -8 19 -14 23 -14 17 0 174 -132 248
-207 190 -194 347 -473 392 -697 33 -163 38 -195 40 -316 2 -64 -4 -150 -15
-220 -21 -139 -22 -143 -55 -250 -148 -476 -525 -842 -1012 -983 l-82 -23 33
-45 c86 -113 188 -261 184 -265 -4 -4 -64 4 -167 21 -159 27 -451 110 -630
178 -159 60 -433 214 -580 325 -78 59 -209 186 -270 261 -19 23 -43 53 -53 64
-34 39 -123 181 -156 247 -18 36 -37 72 -41 81 -31 60 -81 209 -75 219 3 5 1
10 -4 12 -6 1 -12 19 -14 38 -2 20 -6 41 -10 47 -4 6 -9 41 -11 77 -3 36 -8
71 -12 78 -5 7 -3 8 7 3 11 -7 12 -6 3 6 -14 19 -18 183 -5 208 6 11 7 22 2
25 -4 3 -6 17 -4 31 3 13 9 23 13 20 4 -2 5 7 2 21 -3 16 1 30 9 35 12 7 11 9
-1 9 -13 0 -13 1 0 10 9 6 10 10 3 10 -8 0 -9 8 -1 33 6 17 13 39 16 47 2 8 6
28 8 44 2 16 9 34 14 41 5 7 7 15 3 18 -3 4 -1 7 6 7 7 0 9 4 6 10 -3 5 0 20
7 32 7 13 13 25 13 28 9 37 19 60 26 60 5 0 8 3 8 8 -1 4 0 10 1 15 1 4 3 10
4 15 4 17 40 78 50 84 6 4 8 8 4 8 -4 0 1 15 12 33 11 17 23 40 26 50 4 9 10
17 14 17 4 0 12 12 18 26 7 15 17 22 24 18 6 -4 8 -3 5 3 -6 10 2 22 53 87 48
60 135 144 144 139 6 -3 8 -3 4 2 -7 7 14 35 26 35 3 0 14 8 24 18 34 32 72
62 80 62 4 0 25 14 46 30 21 16 43 27 49 23 6 -3 7 -1 4 4 -4 6 8 17 26 24 17
7 34 15 37 18 8 9 92 48 120 56 14 4 30 11 35 15 6 4 26 13 45 18 131 39 185
53 218 58 20 3 44 7 52 9 8 2 44 7 80 11 36 3 66 7 67 8 5 5 213 -2 263 -8z
m3356 -1306 c-1 -22 -21 -28 -21 -7 -1 9 12 26 21 27 1 0 1 -9 0 -20z m-86
-1090 c0 -5 -4 -10 -10 -10 -5 0 -10 5 -10 10 0 6 5 10 10 10 6 0 10 -4 10
-10z m-945 -1690 c-3 -5 -12 -10 -18 -10 -7 0 -6 4 3 10 19 12 23 12 15 0z"/>
<path d="M8430 8161 c0 -6 4 -12 8 -15 5 -3 9 1 9 9 0 8 -4 15 -9 15 -4 0 -8
-4 -8 -9z"/>
<path d="M8547 7899 c7 -7 15 -10 18 -7 3 3 -2 9 -12 12 -14 6 -15 5 -6 -5z"/>
<path d="M8603 7703 c9 -2 14 -9 11 -15 -4 -7 -2 -8 5 -4 15 10 4 26 -17 25
-15 -1 -15 -2 1 -6z"/>
<path d="M8670 7560 c0 -5 5 -10 11 -10 5 0 7 5 4 10 -3 6 -8 10 -11 10 -2 0
-4 -4 -4 -10z"/>
<path d="M8676 7381 c9 -9 34 -9 34 -1 0 5 -9 8 -20 7 -10 -1 -17 -3 -14 -6z"/>
<path d="M8684 7340 c0 -13 4 -16 10 -10 7 7 7 13 0 20 -6 6 -10 3 -10 -10z"/>
<path d="M8713 7343 c4 -3 1 -13 -6 -22 -11 -14 -10 -14 5 -2 16 12 16 31 1
31 -4 0 -3 -3 0 -7z"/>
<path d="M8733 7205 c0 -8 4 -12 9 -9 5 3 6 10 3 15 -9 13 -12 11 -12 -6z"/>
<path d="M8718 7143 c7 -3 16 -2 19 1 4 3 -2 6 -13 5 -11 0 -14 -3 -6 -6z"/>
<path d="M8726 7085 c4 -8 11 -15 16 -15 6 0 5 6 -2 15 -7 8 -14 15 -16 15 -2
0 -1 -7 2 -15z"/>
<path d="M8750 6960 c0 -5 5 -10 11 -10 5 0 7 5 4 10 -3 6 -8 10 -11 10 -2 0
-4 -4 -4 -10z"/>
<path d="M8735 6921 c-3 -5 -2 -12 3 -15 5 -3 9 1 9 9 0 17 -3 19 -12 6z"/>
<path d="M8750 6862 c0 -5 10 -17 23 -28 22 -19 22 -19 4 2 -9 11 -14 24 -10
27 3 4 1 7 -5 7 -7 0 -12 -4 -12 -8z"/>
<path d="M8750 6799 c0 -5 5 -7 10 -4 6 3 10 8 10 11 0 2 -4 4 -10 4 -5 0 -10
-5 -10 -11z"/>
<path d="M8750 6700 c-13 -8 -12 -10 3 -10 9 0 17 5 17 10 0 12 -1 12 -20 0z"/>
<path d="M8737 6669 c7 -7 15 -10 18 -7 3 3 -2 9 -12 12 -14 6 -15 5 -6 -5z"/>
<path d="M8748 6631 c4 -10 7 -11 10 -3 2 7 8 10 12 7 5 -3 11 -2 14 3 2 4 -6
8 -19 8 -16 0 -21 -4 -17 -15z"/>
<path d="M8736 6566 c3 -8 13 -17 22 -21 13 -5 13 -2 -3 15 -21 24 -26 25 -19
6z"/>
<path d="M8736 6238 c3 -5 10 -6 15 -3 13 9 11 12 -6 12 -8 0 -12 -4 -9 -9z"/>
<path d="M8693 6185 c0 -8 4 -12 9 -9 5 3 6 10 3 15 -9 13 -12 11 -12 -6z"/>
<path d="M8695 6157 c-15 -12 -16 -15 -4 -22 8 -5 10 -4 6 0 -4 5 3 15 15 22
13 7 18 12 12 13 -5 0 -18 -6 -29 -13z"/>
<path d="M8710 6129 c0 -5 5 -7 10 -4 6 3 10 8 10 11 0 2 -4 4 -10 4 -5 0 -10
-5 -10 -11z"/>
<path d="M8684 6089 c-19 -22 -19 -22 4 -8 12 8 22 17 22 21 0 12 -6 9 -26
-13z"/>
<path d="M8681 6056 c-8 -10 -9 -16 -1 -21 6 -4 9 -1 8 7 -2 7 3 12 10 11 6
-2 12 2 12 7 0 14 -16 12 -29 -4z"/>
<path d="M8661 6024 c-1 -6 5 -17 12 -23 10 -8 14 -7 14 4 0 8 -4 12 -8 9 -4
-2 -10 2 -12 8 -4 8 -6 9 -6 2z"/>
<path d="M8655 5981 c-9 -15 15 -25 28 -12 9 9 7 10 -7 5 -13 -5 -17 -4 -12 4
4 7 5 12 2 12 -3 0 -7 -4 -11 -9z"/>
<path d="M8635 5860 c3 -5 8 -10 11 -10 2 0 4 5 4 10 0 6 -5 10 -11 10 -5 0
-7 -4 -4 -10z"/>
<path d="M8639 5818 c-5 -10 -4 -80 1 -83 3 -2 6 16 6 41 -1 38 -3 51 -7 42z"/>
<path d="M8600 5735 c-11 -13 -10 -14 4 -9 9 3 16 10 16 15 0 13 -6 11 -20 -6z"/>
<path d="M8577 5675 c-17 -36 -7 -59 16 -36 9 9 8 11 -5 6 -15 -6 -16 -4 -5
18 6 14 16 23 21 20 5 -4 6 -1 2 5 -3 5 0 13 6 15 9 4 8 6 -3 6 -8 1 -23 -15
-32 -34z"/>
<path d="M8615 5671 c-3 -5 -2 -12 3 -15 5 -3 9 1 9 9 0 17 -3 19 -12 6z"/>
<path d="M8527 5546 c-4 -9 -1 -18 5 -22 7 -5 8 -2 3 6 -6 9 -2 10 16 5 13 -4
22 -6 19 -3 -34 27 -38 28 -43 14z"/>
<path d="M8504 5489 c-3 -6 2 -18 11 -27 10 -10 15 -12 11 -5 -3 6 -3 13 1 16
5 2 2 2 -6 0 -8 -2 -11 2 -7 12 6 17 0 20 -10 4z"/>
<path d="M8489 5432 c-13 -15 -12 -16 3 -4 13 10 17 10 21 0 4 -9 6 -9 6 -1 2
20 -16 24 -30 5z"/>
<path d="M8490 5405 c0 -7 30 -13 34 -7 3 4 -4 9 -15 9 -10 1 -19 0 -19 -2z"/>
<path d="M8462 5361 c-11 -7 -11 -9 0 -14 9 -3 15 1 15 9 0 8 -1 14 -1 14 -1
0 -7 -4 -14 -9z"/>
<path d="M8440 5316 c0 -3 9 -10 20 -16 11 -6 20 -8 20 -6 0 3 -9 10 -20 16
-11 6 -20 8 -20 6z"/>
<path d="M8433 5293 c4 -7 0 -16 -9 -21 -16 -9 -16 -11 0 -33 9 -13 16 -18 16
-12 0 7 -5 15 -10 18 -8 5 -7 11 1 21 10 12 14 12 20 2 6 -8 9 -9 9 -2 0 6 -8
18 -17 25 -10 8 -14 9 -10 2z"/>
<path d="M8402 5223 c-7 -2 -17 -14 -23 -26 -7 -12 -8 -19 -4 -15 5 4 15 2 24
-4 13 -10 14 -10 4 2 -17 19 -16 30 2 30 8 0 15 5 15 10 0 6 -1 10 -2 9 -2 0
-9 -3 -16 -6z"/>
<path d="M8329 5093 c-10 -11 -10 -14 -1 -9 6 4 12 3 12 -2 0 -5 7 -9 16 -9
15 0 15 1 0 12 -8 7 -13 15 -9 18 3 4 4 7 1 7 -3 0 -12 -8 -19 -17z"/>
<path d="M8316 5063 c7 -4 14 -17 17 -28 5 -16 5 -15 4 4 -1 14 -9 26 -17 28
-10 3 -11 2 -4 -4z"/>
<path d="M8295 5011 c3 -5 -3 -11 -12 -13 -16 -3 -15 -5 2 -9 16 -5 21 -1 22
12 1 11 -3 19 -8 19 -6 0 -8 -4 -4 -9z"/>
<path d="M8269 4978 c-7 -13 -4 -46 3 -42 4 3 5 10 2 16 -4 6 0 14 7 19 10 6
11 9 2 9 -7 0 -14 -1 -14 -2z"/>
<path d="M8203 4859 c-2 -23 3 -25 10 -4 4 8 3 16 -1 19 -4 3 -9 -4 -9 -15z"/>
<path d="M8216 4833 c-6 -14 -5 -15 5 -6 7 7 10 15 7 18 -3 3 -9 -2 -12 -12z"/>
<path d="M8150 4786 c0 -2 7 -7 16 -10 8 -3 12 -2 9 4 -6 10 -25 14 -25 6z"/>
<path d="M8138 4756 c-17 -13 -14 -26 5 -26 6 0 7 3 4 7 -4 3 -2 12 4 20 14
16 9 16 -13 -1z"/>
<path d="M8069 4658 c-8 -7 -23 -24 -34 -37 l-20 -25 27 20 c14 10 24 21 22
23 -2 2 4 10 14 17 9 7 14 14 11 14 -3 0 -12 -6 -20 -12z"/>
<path d="M8030 4579 c0 -5 5 -7 10 -4 6 3 10 8 10 11 0 2 -4 4 -10 4 -5 0 -10
-5 -10 -11z"/>
<path d="M7965 4520 c-3 -6 1 -7 9 -4 18 7 21 14 7 14 -6 0 -13 -4 -16 -10z"/>
<path d="M7970 4491 c0 -7 -4 -10 -8 -7 -5 3 -9 -2 -9 -10 0 -13 2 -13 16 0 8
9 12 19 8 22 -4 4 -7 2 -7 -5z"/>
<path d="M7917 4471 c-17 -17 -17 -19 0 -32 17 -13 17 -13 3 5 -13 18 -13 19
0 14 11 -4 16 0 17 13 2 23 3 23 -20 0z"/>
<path d="M7861 4401 c-14 -25 -14 -31 -1 -31 6 0 9 3 9 8 -4 25 2 34 15 23 11
-9 16 -9 22 1 4 7 4 10 -1 6 -4 -4 -14 -3 -21 3 -9 8 -15 5 -23 -10z"/>
<path d="M7670 4186 c0 -2 9 -6 20 -9 11 -3 18 -1 14 4 -5 9 -34 13 -34 5z"/>
<path d="M7590 4099 c0 -5 5 -7 10 -4 6 3 10 8 10 11 0 2 -4 4 -10 4 -5 0 -10
-5 -10 -11z"/>
<path d="M7534 4062 c3 -5 0 -13 -6 -15 -9 -4 -10 -6 -1 -6 17 -1 25 16 12 25
-7 4 -9 3 -5 -4z"/>
<path d="M7478 4018 c-9 -5 -6 -7 9 -5 12 2 25 6 28 8 8 9 -23 6 -37 -3z"/>
<path d="M7415 3960 c-3 -5 -1 -10 4 -10 6 0 11 5 11 10 0 6 -2 10 -4 10 -3 0
-8 -4 -11 -10z"/>
<path d="M7390 3940 c0 -5 5 -10 11 -10 5 0 7 5 4 10 -3 6 -8 10 -11 10 -2 0
-4 -4 -4 -10z"/>
<path d="M7225 3820 c-3 -6 1 -7 9 -4 18 7 21 14 7 14 -6 0 -13 -4 -16 -10z"/>
<path d="M7195 3799 c-4 -6 -4 -13 -1 -16 3 -4 6 -1 6 6 0 7 5 9 12 5 7 -4 8
-3 4 4 -9 15 -13 15 -21 1z"/>
<path d="M7106 3741 c-4 -5 3 -7 14 -4 23 6 26 13 6 13 -8 0 -17 -4 -20 -9z"/>
<path d="M7075 3720 c-3 -5 -1 -10 4 -10 6 0 11 5 11 10 0 6 -2 10 -4 10 -3 0
-8 -4 -11 -10z"/>
<path d="M7006 3682 c-3 -5 1 -9 9 -9 8 0 12 4 9 9 -3 4 -7 8 -9 8 -2 0 -6 -4
-9 -8z"/>
<path d="M6953 3635 c0 -8 4 -12 9 -9 4 3 8 9 8 15 0 5 -4 9 -8 9 -5 0 -9 -7
-9 -15z"/>
<path d="M6855 3589 c-4 -6 -5 -12 -2 -15 2 -3 7 2 10 11 7 17 1 20 -8 4z"/>
</g>
</svg>
